<?xml version="1.0" encoding="UTF-8" standalone="no"?>
<svg xmlns:dc="http://purl.org/dc/elements/1.1/" xmlns:cc="http://creativecommons.org/ns#" xmlns:rdf="http://www.w3.org/1999/02/22-rdf-syntax-ns#" xmlns:svg="http://www.w3.org/2000/svg" xmlns="http://www.w3.org/2000/svg" xmlns:sodipodi="http://sodipodi.sourceforge.net/DTD/sodipodi-0.dtd" xmlns:inkscape="http://www.inkscape.org/namespaces/inkscape" inkscape:version="1.0 (4035a4f, 2020-05-01)" sodipodi:docname="soosiana-logo.svg" viewBox="0 0 266.66666 266.66666" height="266.66666" width="266.66666" id="svg885" version="1.1">
  <metadata id="metadata891">
    <rdf:RDF>
      <cc:Work rdf:about="">
        <dc:format>image/svg+xml</dc:format>
        <dc:type rdf:resource="http://purl.org/dc/dcmitype/StillImage"/>
        <dc:title/>
      </cc:Work>
    </rdf:RDF>
  </metadata>
  <defs id="defs889"/>
  <sodipodi:namedview inkscape:current-layer="g893" inkscape:window-maximized="0" inkscape:window-y="23" inkscape:window-x="0" inkscape:cy="118.76678" inkscape:cx="91.926634" inkscape:zoom="1.4286408" showgrid="false" id="namedview887" inkscape:window-height="735" inkscape:window-width="1220" inkscape:pageshadow="2" inkscape:pageopacity="0" guidetolerance="10" gridtolerance="10" objecttolerance="10" borderopacity="1" bordercolor="#666666" pagecolor="#ffffff"/>
  <g id="g893" inkscape:label="Image" inkscape:groupmode="layer">
    <path id="path897" d="M 204.99999,220.8963 C 196.06872,219.83484 187.0016,216.33384 182,212.01553 l -2.33334,-2.01456 4.53629,2.0226 c 7.05853,3.1472 12.00483,4.20428 19.46371,4.15963 15.26141,-0.0914 27.93799,-7.39901 36.59139,-21.0938 4.28421,-6.78014 6.28223,-20.67912 4.16226,-28.95419 -3.77094,-14.71939 -14.2354,-25.27208 -28.9275,-29.17136 -5.01487,-1.33095 -15.37384,-1.31072 -20.49281,0.04 -5.90258,1.55749 -14.17977,5.81859 -18.19836,9.36851 -1.94243,1.71589 -3.65712,2.99437 -3.81043,2.84106 -0.59701,-0.59701 5.67735,-7.44637 9.40883,-10.27107 8.9396,-6.76719 17.35926,-9.28105 29.26662,-8.73812 8.60527,0.39236 14.09243,1.92025 20.23493,5.63437 9.56931,5.78618 16.53575,14.31889 19.8817,24.35172 1.62642,4.87679 1.82762,6.46165 1.83786,14.47634 0.009,6.90233 -0.27635,9.9323 -1.22348,13 -4.78334,15.49286 -17.30903,27.93191 -31.79848,31.57853 -5.18959,1.30608 -12.23109,2.05139 -15.5992,1.6511 z m -76.66666,-0.72383 c -10.71745,-0.73497 -17.07621,-2.24101 -27.25879,-6.4561 -13.004116,-5.38307 -22.210849,-12.75394 -29.360322,-23.50576 -2.069306,-3.11195 -3.7373,-4.90585 -4.81242,-5.17569 -2.134752,-0.53579 -7.242349,0.40653 -21.568466,3.97924 -23.430157,5.84311 -31.713296,7.47084 -28.504056,5.60138 0.639434,-0.37249 6.039434,-2.33048 11.999999,-4.3511 14.583544,-4.94378 23.169044,-9.21784 28.703796,-14.28944 4.980119,-4.56337 6.028873,-6.86588 5.693567,-12.50007 l -0.22664,-3.80827 10.666667,-0.43854 c 16.233953,-0.66743 29.790775,-3.96454 43.314655,-10.5344 13.14655,-6.38655 21.18786,-12.40118 31.3124,-23.42064 6.73593,-7.3313 12.14003,-15.43667 17.19062,-25.783422 l 3.99148,-8.177014 2.42875,1.467934 c 1.33582,0.80736 3.44975,2.14594 4.69761,2.97462 2.05176,1.36252 2.44055,1.4179 4.06327,0.57876 4.2565,-2.20112 19.26429,-21.01202 26.06476,-32.669792 2.26062,-3.875281 4.25208,-6.904088 4.42549,-6.730681 1.35853,1.358522 -10.03658,26.036 -18.77694,40.663726 l -4.34031,7.263889 4.51715,4.49926 c 2.74203,2.73118 5.36508,6.16425 6.67486,8.73612 1.18674,2.33027 1.6495,3.48685 1.02835,2.57018 -0.62115,-0.91666 -4.30834,-4.78848 -8.19377,-8.60403 -5.26999,-5.17521 -7.00533,-7.29195 -6.83179,-8.33333 0.12795,-0.76778 1.66614,-3.34597 3.41821,-5.729302 1.75207,-2.383334 3.85674,-5.683334 4.67704,-7.333334 1.44305,-2.902633 1.29975,-2.80812 -4.41534,2.911987 -3.24874,3.251593 -6.63534,6.188987 -7.5258,6.527529 -1.99416,0.75818 -5.04019,0.16304 -7.8288,-1.529609 l -2.1081,-1.279593 -3.80835,7.245662 c -10.63612,20.23597 -26.91761,36.7212 -45.74133,46.31371 -13.76718,7.01572 -29.942316,11.44987 -44.498482,12.19854 -10.033486,0.51605 -9.820213,0.43826 -10.334453,3.76939 -0.805821,5.21993 -2.448471,9.04172 -5.258206,12.23375 -2.701566,3.06914 -2.730456,3.1503 -0.963563,2.70683 3.447844,-0.86535 7.729216,-1.26568 9.305376,-0.87008 0.92106,0.23117 2.21546,1.52824 3.10556,3.11195 3.941099,7.01223 13.417959,15.45397 22.742986,20.25884 12.627622,6.50658 23.248582,8.80688 37.930102,8.21492 10.82588,-0.4365 16.49577,-1.7812 27.33458,-6.48286 9.68391,-4.20068 13.9433,-6.74441 18.88862,-11.28043 5.13976,-4.71436 7.12246,-7.64095 13.34868,-19.70354 2.84276,-5.50751 5.02187,-9.26366 4.84247,-8.347 -0.9804,5.00953 -3.72023,15.47774 -4.60549,17.59648 -1.48586,3.55614 -7.13093,11.49898 -11.20758,15.7695 -5.35105,5.60551 -19.5904,13.49645 -31.08936,17.22862 -5.52097,1.79192 -17.47333,3.29767 -23.10869,2.91121 z m -65.971547,-70.5696 c 0.246418,-3.26491 1.167519,-10.27463 2.04689,-15.57716 1.903592,-11.47848 1.687625,-13.77496 -1.417447,-15.07234 -1.191986,-0.49805 -6.327643,-1.23168 -11.412571,-1.6303 -9.549167,-0.74858 -16.013428,-1.74139 -16.502984,-2.53459 -0.154501,-0.25034 3.365268,-0.47022 7.821709,-0.48863 16.725184,-0.0691 25.686612,-4.35212 28.815398,-13.77202 0.85968,-2.588252 1.323754,-3.189546 2.189087,-2.836392 2.52654,1.0311 12.532206,1.081186 17.210319,0.08615 11.700316,-2.488673 21.943416,-10.885706 27.645846,-22.663353 1.46321,-3.022079 1.68151,-3.192213 3.56695,-2.779846 1.10459,0.241587 3.20835,0.49018 4.67502,0.552433 l 2.66666,0.11318 2.48943,-5 c 1.36919,-2.75 3.61919,-8.851267 5,-13.558372 1.38081,-4.707105 2.61833,-8.026231 2.75003,-7.375837 0.13171,0.650395 -0.0828,4.801663 -0.47675,9.22504 -0.39392,4.423376 -0.91207,10.775236 -1.15143,14.115249 l -0.43523,6.072747 3.57865,2.033026 c 1.96825,1.118167 7.47864,3.271947 12.2453,4.78618 4.76667,1.514234 9.61991,3.266634 10.78499,3.894227 l 2.11831,1.141073 -1.85816,4.333333 c -7.20268,16.797102 -20.10641,33.009772 -34.42852,43.257152 -7.57424,5.41932 -21.27364,12.08458 -30.283283,14.73391 -9.911706,2.9146 -16.877026,4.02093 -28.209792,4.48067 l -9.876455,0.40067 z m 25.251275,-0.29194 c 14.982802,-2.89619 26.498292,-7.47416 37.909462,-15.07089 7.98159,-5.31356 19.04132,-16.08239 24.67412,-24.02513 3.30426,-4.6593 11.07891,-18.377819 11.12238,-19.625652 0.0215,-0.616947 -8.0731,-4.088053 -16.10705,-6.907 -8.05978,-2.828007 -9.84939,-4.125113 -9.94509,-7.208233 -0.0365,-1.17738 -0.28189,-2.890694 -0.5452,-3.80736 l -0.47873,-1.666667 -1.05323,2.001574 c -1.94285,3.692246 -3.45492,4.565026 -7.15051,4.127339 l -3.31457,-0.39256 -2.16138,3.7777 c -2.85719,4.993854 -10.83535,13.2531 -15.54657,16.0943 -5.221386,3.148867 -15.815786,6.055529 -23.801412,6.530109 -5.991927,0.35609 -6.478333,0.49076 -6.829753,1.89093 -0.598054,2.38283 -5.787,7.25832 -9.23412,8.67631 -1.730525,0.71186 -3.147533,1.49603 -3.148908,1.7426 -0.0014,0.24656 1.04281,0.79328 2.32041,1.21492 5.255991,1.73464 6.053485,5.61036 3.675071,17.86042 -0.73222,3.77133 -1.331313,9.14052 -1.331313,11.93152 v 5.07454 l 7.11306,-0.45986 c 3.91218,-0.25293 10.13718,-1.04444 13.833333,-1.75891 z M 75.459231,94.857498 c -0.84742,-0.16184 -1.69238,-0.689354 -1.877686,-1.172254 -0.43614,-1.136566 6.286926,-17.665533 10.229133,-25.148799 2.98014,-5.657028 3.1037,-5.787961 5.121566,-5.427131 1.866207,0.33371 15.982036,3.179016 24.901086,5.019271 2.30998,0.476613 3.5,1.0558 3.5,1.70346 0,2.425327 -4.66395,9.51156 -9.3267,14.170666 -5.52437,5.520053 -11.016526,8.641073 -18.176832,10.329327 -3.920747,0.924433 -10.93796,1.18102 -14.370567,0.52546 z m 13.294813,-4.484334 c 5.311614,-1.125853 9.78612,-3.337246 14.153536,-6.994966 3.18618,-2.66844 6.77214,-6.91546 8.34899,-9.888093 0.98836,-1.86324 1.75667,-1.582567 -11.256573,-4.112233 -9.156639,-1.77998 -10.420313,-1.8932 -11.097146,-0.994287 -1.097293,1.457333 -8.902853,20.664953 -8.902853,21.907793 0,1.325253 2.765633,1.351093 8.754046,0.08179 z" style="fill:#000000;stroke-width:0.666667"/>
  </g>
</svg>